<svg xmlns="http://www.w3.org/2000/svg" xmlns:xlink="http://www.w3.org/1999/xlink"><symbol fill="none" viewBox="0 0 29 29" id="svg-github" xmlns="http://www.w3.org/2000/svg"><path fill="currentColor" fill-rule="evenodd" d="M14.832.765C7.084.765.82 7.18.82 15.12c0 6.345 4.014 11.716 9.581 13.617.696.143.951-.308.951-.688 0-.333-.023-1.474-.023-2.662-3.898.855-4.71-1.712-4.71-1.712-.626-1.663-1.554-2.091-1.554-2.091-1.275-.88.093-.88.093-.88 1.415.096 2.158 1.474 2.158 1.474 1.252 2.186 3.27 1.569 4.083 1.188.115-.927.487-1.568.881-1.925-3.108-.332-6.38-1.568-6.38-7.082 0-1.569.557-2.852 1.439-3.85-.14-.357-.627-1.83.14-3.803 0 0 1.182-.38 3.85 1.474a13.26 13.26 0 0 1 3.503-.476c1.183 0 2.389.167 3.503.476 2.668-1.854 3.85-1.474 3.85-1.474.766 1.973.279 3.446.14 3.803.905.998 1.438 2.281 1.438 3.85 0 5.514-3.27 6.726-6.403 7.082.51.452.951 1.307.951 2.662 0 1.925-.023 3.47-.023 3.945 0 .38.256.832.951.69 5.568-1.902 9.581-7.273 9.581-13.618C28.843 7.18 22.557.764 14.832.764Z" clip-rule="evenodd"/></symbol><symbol fill="none" viewBox="0 0 27 29" id="svg-mastodon" xmlns="http://www.w3.org/2000/svg"><path fill="currentColor" fill-rule="evenodd" d="M19.363 22.106c3.492-.419 6.533-2.58 6.916-4.556.602-3.111.552-7.593.552-7.593 0-6.074-3.962-7.854-3.962-7.854-1.997-.922-5.427-1.31-8.99-1.338h-.088C10.227.794 6.8 1.18 4.802 2.103c0 0-3.962 1.78-3.962 7.854 0 .369-.002.756-.004 1.16-.005 1.119-.011 2.361.021 3.658.144 5.94 1.084 11.794 6.551 13.248 2.521.67 4.686.81 6.429.714 3.16-.176 4.935-1.133 4.935-1.133l-.104-2.304s-2.259.716-4.796.629c-2.513-.087-5.167-.273-5.573-3.373a6.385 6.385 0 0 1-.057-.869s2.468.606 5.595.75c1.912.088 3.705-.113 5.526-.33Zm2.795-4.323v-7.355c0-1.503-.381-2.697-1.146-3.581-.79-.884-1.823-1.337-3.106-1.337-1.484 0-2.608.573-3.351 1.72l-.723 1.216-.723-1.216c-.743-1.147-1.867-1.72-3.351-1.72-1.283 0-2.317.453-3.106 1.337-.765.884-1.146 2.078-1.146 3.581v7.355h2.9v-7.139c0-1.504.63-2.268 1.892-2.268 1.394 0 2.092.906 2.092 2.697v3.908h2.884v-3.908c0-1.791.699-2.697 2.092-2.697 1.261 0 1.891.764 1.891 2.268v7.139h2.901Z" clip-rule="evenodd"/></symbol><symbol fill="none" viewBox="0 0 29 29" id="svg-slack" xmlns="http://www.w3.org/2000/svg"><path fill="currentColor" d="M6.747 18.465a2.939 2.939 0 0 1-2.94 2.943 2.939 2.939 0 0 1-2.941-2.943 2.939 2.939 0 0 1 2.94-2.942h2.94v2.942Zm1.47 0a2.939 2.939 0 0 1 2.94-2.942 2.939 2.939 0 0 1 2.94 2.942v7.357a2.939 2.939 0 0 1-2.94 2.943 2.939 2.939 0 0 1-2.94-2.943v-7.357Zm2.94-11.815a2.939 2.939 0 0 1-2.94-2.943 2.939 2.939 0 0 1 2.94-2.942 2.939 2.939 0 0 1 2.94 2.942V6.65h-2.94Zm0 1.494a2.939 2.939 0 0 1 2.94 2.942 2.939 2.939 0 0 1-2.94 2.943H3.784a2.939 2.939 0 0 1-2.94-2.943 2.939 2.939 0 0 1 2.94-2.942h7.373Zm11.783 2.942a2.939 2.939 0 0 1 2.941-2.942 2.939 2.939 0 0 1 2.94 2.942 2.939 2.939 0 0 1-2.94 2.943h-2.94v-2.943Zm-1.47 0a2.939 2.939 0 0 1-2.94 2.943 2.939 2.939 0 0 1-2.94-2.943V3.707A2.939 2.939 0 0 1 18.53.765a2.939 2.939 0 0 1 2.94 2.942v7.38ZM18.53 22.88a2.939 2.939 0 0 1 2.94 2.942 2.939 2.939 0 0 1-2.94 2.943 2.939 2.939 0 0 1-2.94-2.943v-2.943h2.94Zm0-1.472a2.939 2.939 0 0 1-2.94-2.943 2.939 2.939 0 0 1 2.94-2.942h7.373a2.939 2.939 0 0 1 2.94 2.942 2.939 2.939 0 0 1-2.94 2.943H18.53Z"/></symbol></svg>