<svg xmlns="http://www.w3.org/2000/svg" viewBox="0 0 51 48" fill="none">
  <g filter="url(#a)">
    <path
      fill="#3CE06F"
      d="M34.232 14.452c0 4.682-3.827 8.478-8.548 8.478-4.72 0-8.547-3.796-8.547-8.478s3.827-8.478 8.547-8.478c4.721 0 8.548 3.796 8.548 8.478Z" />
    <path
      fill="#FF7B6F"
      d="M23.056 34.496c0 4.682-3.827 8.478-8.548 8.478-4.72 0-8.547-3.796-8.547-8.478 0-4.683 3.827-8.478 8.547-8.478 4.721 0 8.548 3.796 8.548 8.478Z" />
    <path
      fill="#AC9CFF"
      d="M45.96 34.496c0 4.682-3.827 8.478-8.547 8.478-4.72 0-8.548-3.796-8.548-8.478 0-4.683 3.827-8.478 8.548-8.478 4.72 0 8.547 3.796 8.547 8.478Z" />
  </g>
  <defs>
    <filter
      id="a"
      width="51"
      height="48"
      x=".961"
      y=".974"
      color-interpolation-filters="sRGB"
      filterUnits="userSpaceOnUse">
      <feFlood flood-opacity="0" result="BackgroundImageFix" />
      <feColorMatrix
        in="SourceAlpha"
        result="hardAlpha"
        values="0 0 0 0 0 0 0 0 0 0 0 0 0 0 0 0 0 0 127 0" />
      <feOffset />
      <feGaussianBlur stdDeviation="2.5" />
      <feComposite in2="hardAlpha" operator="out" />
      <feColorMatrix
        values="0 0 0 0 0.673384 0 0 0 0 0.611627 0 0 0 0 1 0 0 0 0.4 0" />
      <feBlend in2="BackgroundImageFix" result="effect1_dropShadow_537_286" />
      <feBlend
        in="SourceGraphic"
        in2="effect1_dropShadow_537_286"
        result="shape" />
    </filter>
  </defs>
</svg>
