<svg
  xmlns="http://www.w3.org/2000/svg"
  viewBox="0 0 175 59"
  width="175"
  height="59"
  fill="none">
  <path
    fill="#b1b5ba"
    d="M74.862 31.015c0 8.338-6.448 14.483-14.361 14.483-7.914 0-14.362-6.145-14.362-14.483 0-8.397 6.448-14.483 14.361-14.483 7.914 0 14.362 6.086 14.362 14.483Zm-6.287 0c0-5.21-3.737-8.776-8.075-8.776-4.337 0-8.074 3.565-8.074 8.776 0 5.158 3.737 8.776 8.075 8.776 4.337 0 8.074-3.624 8.074-8.776ZM105.837 31.01c0 8.337-6.448 14.482-14.362 14.482-7.913 0-14.361-6.145-14.361-14.483 0-8.39 6.448-14.483 14.361-14.483 7.914 0 14.362 6.086 14.362 14.483Zm-6.287 0c0-5.212-3.737-8.777-8.075-8.777-4.337 0-8.074 3.565-8.074 8.776 0 5.158 3.737 8.776 8.074 8.776 4.338 0 8.075-3.624 8.075-8.776ZM135.535 17.407v26.001c0 10.696-6.236 15.064-13.607 15.064-6.938 0-11.115-4.695-12.69-8.534l5.474-2.305c.975 2.357 3.363 5.139 7.21 5.139 4.718 0 7.642-2.945 7.642-8.489V42.2h-.219c-1.407 1.757-4.118 3.291-7.539 3.291-7.159 0-13.716-6.307-13.716-14.424 0-8.175 6.557-14.535 13.716-14.535 3.414 0 6.125 1.535 7.539 3.239h.219v-2.357l5.971-.007Zm-5.525 13.66c0-5.1-3.363-8.828-7.643-8.828-4.337 0-7.971 3.729-7.971 8.828 0 5.048 3.634 8.724 7.971 8.724 4.28 0 7.643-3.676 7.643-8.724ZM145.378 2.164v42.442h-6.132V2.164h6.132ZM169.276 35.776l4.879 3.291c-1.575 2.358-5.369 6.419-11.929 6.419-8.132 0-14.205-6.36-14.205-14.483 0-8.613 6.125-14.483 13.503-14.483 7.429 0 11.063 5.982 12.25 9.214l.653 1.645-19.139 8.019c1.465 2.905 3.745 4.388 6.938 4.388 3.203 0 5.422-1.594 7.05-4.01Zm-15.02-5.21 12.792-5.374c-.703-1.809-2.821-3.07-5.312-3.07-3.194 0-7.642 2.854-7.48 8.444ZM22.925 27.243V21.1h20.468c.2 1.07.303 2.337.303 3.709 0 4.61-1.246 10.31-5.26 14.372-3.906 4.113-8.895 6.307-15.505 6.307C10.681 45.487.38 35.392.38 23 .379 10.606 10.68.511 22.93.511c6.778 0 11.606 2.69 15.233 6.197l-4.286 4.335c-2.6-2.468-6.125-4.388-10.953-4.388C13.979 6.655 6.982 13.95 6.982 23s6.997 16.344 15.943 16.344c5.803 0 9.107-2.357 11.225-4.5 1.716-1.736 2.846-4.217 3.291-7.606l-14.516.006Z" />
</svg>
