<svg
  xmlns="http://www.w3.org/2000/svg"
  width="200"
  height="38"
  fill="none"
  viewBox="0 0 200 38">
  <path
    fill="#b1b5ba"
    fill-rule="evenodd"
    d="M86.2935 23.4642h8.0104v3.358h-11.905V11.03h3.8946v12.4342Zm-19.9577 3.358h12.1214V23.515h-8.2267v-2.8961h7.1778v-3.2378h-7.1778v-3.0347h8.2267v-3.3071H66.3358v15.7875-.0046Zm31.2889 0h12.1213V23.515h-8.227v-2.8961h7.178v-3.2378h-7.178v-3.0347h8.227v-3.3071H97.6247v15.7875-.0046ZM60.8043 12.3787c1.1477 1.0578 1.778 2.5035 1.778 4.0693 0 1.1732-.4233 2.3511-1.3734 3.8291l-4.2004 6.5497h-4.3697l3.0479-4.7067.0236-.037h-.1129c-3.5137-.2124-5.969-2.4942-5.969-5.5612 0-3.381 2.7281-5.8337 6.4864-5.8337 1.8391 0 3.5042.6005 4.6848 1.6952l.0047-.0047Zm-1.8297 4c0-1.4642-1.2747-2.6558-2.8457-2.6558s-2.8457 1.1916-2.8457 2.6558c0 1.4642 1.2747 2.6559 2.8457 2.6559s2.8457-1.1917 2.8457-2.6559Zm63.3964 3.2102-5.805-8.5543h-2.878v15.7876h3.871v-8.1894l3.744 5.6859h2.135l3.721-5.6351v8.1432h3.895V11.03h-2.903l-5.78 8.5543v.0046Zm47.3-5.1501h5.174v12.3834h3.894V14.4388h5.151v-3.4042h-14.219v3.4042Zm25.494 3.127-2.268-.5173c-1.147-.2448-1.909-.6005-1.909-1.5612 0-.5173.23-.9469.668-1.2379.414-.2771 1.006-.4203 1.712-.4203 1.514 0 2.417.679 2.681 2.0138h3.923c-.137-1.2517-1.035-5.1593-6.863-5.1593-1.872 0-3.466.4804-4.609 1.3903-1.153.9192-1.764 2.2125-1.764 3.7413 0 2.4758 1.477 3.9446 4.642 4.619l2.672.5866c1.19.2217 1.768.6882 1.768 1.4226 0 .933-.86 1.4734-2.356 1.4734-1.91 0-3.17-.8175-3.467-2.2494h-3.899c.193 1.7968.997 3.201 2.399 4.1617 1.256.8637 2.93 1.321 4.845 1.321 4.045 0 6.655-2.0046 6.655-5.1085 0-2.4157-1.444-3.7552-4.835-4.4758h.005Zm-59.718 9.2564h12.121V23.515h-8.227v-2.8961h7.178v-3.2378h-7.178v-3.0347h8.227v-3.3071h-12.121v15.7875-.0046Zm26.957-6.7067-7.921-9.0809h-2.978v15.7876h3.895v-8.8453l7.869 8.8453h3.025V11.03h-3.895v9.0808l.005.0047Z"
    clip-rule="evenodd" />
  <path fill="#b1b5ba" d="M38.6971 0H0v38h38.6971V0Z" />
  <path
    fill="black"
    fill-rule="evenodd"
    d="M29.1111 23.5796c.0188.0601.047.1109.094.1524-.4703-.2725-.8842-.6189-1.3311-.9191.0329.157.9925.6697.936.7713-.0141.0277-1.2417-.8637-1.2605-.8499-.0753.0555.2069.3419.1458.328.0094.0092.2305.1663.2022.194-.0517.0185 1.3171 1.0208 1.1948 1.164-.0471.0554-.4187-.2772-.4704-.3003.0329.0555.0753.1063.127.1571-.2916-.1709-.5268-.4019-.7996-.5913.0376.0693.0893.1248.1505.171-.2305 0-.715-.5682-.9125-.679-.0659-.0324-.3669-.3234-.4139-.3049 0 .0185 0 .0323.0141.0462-.1129-.0554-.2164-.1247-.3011-.2125.0047.0462-.3198-.4064-.4468-.351.0799.0739.1552.1524.2352.2263-.2587.0555-.4704-.5866-.8232-.4388.0282-.0138 1.4488 1.3118 1.4911 1.4042 0-.0093-.0847-.0277-.0894-.037.0894.2818.4892.5497.6868.7529-.461-.3095-.9079-.739-1.3641-.9838-.1788-.097-.2352-.2772-.4092-.1848-.0377.0185-.4234-.2402-.4704-.2863-.0094.0692 0 .1339.0329.1986-.3622-.2818-.7008-.6929-1.1242-.8915.0988.1386.1882.2494.2164.3095.0282.0646.08.1108.0941.1847-.6068-.4803-1.2136-.9746-1.7921-1.4826-.127-.1109-.7667-.6929-.8702-.5127-.2069-.1848-1.5851-1.3442-1.8673-1.3996.2304.1848.428.3972.6491.5866-.0518.0416-.6397-.4573-.7197-.5265-.1458-.1155-.6021-.5127-.809-.6975-.1647-.1478-.3246-.2956-.4845-.4388-.2963.231-.8043.6467-.8749.7021-.0847.0693-.1834.1108-.2681.1986-.2305.2402-.4939.4434-.762.642-.3387.2495-.6397.5451-.9878.8037 0-.0462.0565-.0554.033-.1154-.0894.0692-.1788.1339-.2587.2032-.461.3926-.922.7806-1.3782 1.1778-.3434.2956-.6773.6051-1.0254.8915-.3857.3141-.7526.6512-1.1383.9653-.3857.3234.5409-.2679.1834.0878-.0611.06-.1317.1108-.2069.1478-.0941.0508-.1599.1293-.2399.194-.0941.0693-.207.1201-.3199.1847.0095-.12.0095-.12-.1128-.1524-.0941-.0277-.1694-.1062-.2258-.1755-.08-.1016-.3011-.5266-.3763-.836 0-.0185-.0047-.0462 0-.0647.0611-.2356 0-.4573-.0847-.679-.0941-.2679-.0846-.5404-.1082-.8175-.0141-.1709.127-.2772.2305-.3834.2164-.2263.4328-.4665.682-.6605.1647-.1293.3199-.2725.5175-.3649.1505-.0647.2398-.2125.3527-.3233.1364-.1294.2917-.2448.4187-.3788.1881-.194.4656-.291.6491-.4896.1646-.1709 1.7921-1.5011 2.0178-1.6859.3716-.3049.715-.6097 1.0866-.9099-.0518-.0416-.1035-.0878-.1552-.134-.4328-.3649-.9173-.7944-1.3641-1.1593-.4469-.3603-.8843-.7529-1.3264-1.1317-.7009-.5958-1.3688-.993-2.0885-1.575-.3716-.3003-1.1806-.8453-1.2605-1.3257-.0565-.3371.4186-.679.5738-.9099-.0047.0092.7103-1.09007.936-1.00231.0659.02772.1552-.06928.3152-.00924.2634.097.4421.32333.6397.50347.6303.58658 1.2935 1.14088 1.9473 1.69978 1.3594 1.1593 2.6529 2.1755 3.9793 3.3025.0753-.06.1552-.1154.2352-.1755.2728-.2032.5597-.388.8325-.5912.3481-.2541.7056-.4942 1.0584-.739.1693-.1155.348-.2264.5127-.3465.3151-.2355.6491-.448.9736-.6697.4422-.291.8843-.5774 1.3312-.8684.2587-.1709.5268-.3325.7996-.485.1176-.0646.2163-.1709.3527-.2124.0565-.0185.1035-.0508.1694-.0924.3763-.2356.762-.45729 1.1571-.66976.4751-.25866.9454-.52655 1.4393-.76212.1317-.06005.2681-.15704.4469-.16166-.0988.12009-.2164.18937-.3246.28637.1082.05543.301-.11085.3246-.06928.0282.05542-.0518.1478-.0236.13856.0706-.03233.1364-.09237.2305-.09699-.0611.10161-.1599.15242-.2399.22171.127-.0231.2258-.13395.3904-.14781-.1599.13395-.3386.18938-.4891.28637-.1129.07391-.2399.12933-.3622.194 0 0-.0094 0-.0094.00462-.0236.12933-.1553.15704-.2305.24018.127-.00462.2258-.06004.3292-.12471.0424.03233-.0188.05081 0 .08776.4093-.15242.7573-.44342 1.1854-.55889-.1553.097-.3105.19861-.4704.29561-.127.0739-.2399.16628-.3716.23557-.1082.05542-.2305.09238-.3292.16628-.033.02771-.1082.05081-.0753.10619.0329.0601.0988.0462.1646.0093.1882-.10625.3763-.20325.5692-.30487.0141-.00462.0329 0 .0517 0-.0517.16167-.2164.21709-.3151.35567.1128-.0185.1787-.097.2775-.12472.1693-.04619.3245-.11547.508-.12009.1223 0 .2399-.08314.3716-.11548-.0988.06929-.207.13395-.3058.21248-.0329.02309-.1082.02309-.0752.10161.0376.0924.094.0416.1458.0185.0564-.0231.1129-.0508.1693-.0785.0188-.00928.0329-.00928.0423.0092.0047.0185.0047.0369-.0188.0416-.1176.0231-.2069.1016-.2963.1709-.0941.0646-.1787.1432-.2728.2171.0188.06.0894-.0509.0988.023.0094.0601-.0518.0647-.08.074-.4516.1986-.8231.5265-1.2324.7852-.1787.1108-.6632.3972-.7243.4342-.1788.1062-.3575.217-.5315.3325-.0236.0139-.08.0185-.0471.0739.0282.0508.0565.037.0988.0139.2587-.1247.5127-.2587.7338-.4388.1364-.1155.3057-.1524.4468-.2494.1788-.1201.8185-.5127 1.0819-.6652.1411-.0831.1364-.0924.2728-.0369-.0377.0554-.1082.0646-.1505.1108-.1317.134-.2729.2495-.4187.3649-.1364.1109-.2822.2079-.428.3049-.0611.0369-.1176.0785-.1505.1478.4468-.2079.8419-.5173 1.2841-.739-.1411.157-.3387.2309-.508.3464-.2634.1847-.5692.3002-.7996.5311-.0565.0601-.1506.0416-.2164.097-.2587.2125-.5833.3326-.842.5405-.0987.0785-.2069.1385-.2963.2217-.0376.0323-.0705.0693-.1223.0785-.2493.0554-.3904.2771-.6068.388-.1364.0693-.254.1801-.3904.2448-.1599.0785-.3057.1801-.4468.2771-.2305.1571-.4516.3326-.6868.4943-.127.0831-.2822.1247-.3762.254-.1929.0739-.3387.2217-.5127.3326-.287.1847-.5598.3833-.8279.5958-.0564.0462-.1035.097-.1599.1386-.1882.0046-.2446.194-.4139.2586.0752.037-.1976.1571-.2164.1709-.1317.0924-.2916.0693-.3951.1894-.0471.0508-.1411.1062-.2305.157 1.5993 1.3349 3.222 2.6421 4.7554 4.0093.8185.7298 1.6886 1.4088 2.5635 2.0877.5315.4111 1.9473 1.7091 2.112 1.8245-.0659.0555-.889-.5635-.9972-.6512l-.0094.0138Zm-.9031 3.1455c-.0894-.0046-.4798-.0647-.5174 0-.0471 0-.4798-.097-.4986-.0693-.2822-.0138-.4186.0878-.7056.097-.3151-.06-.7243-.0924-1.0395-.0369-.4421-.0416-.9454.0231-1.3876.0415-.4045.0185-7.8692.0739-8.3113.097-.414-.0508-.9126-.0785-1.3265-.0508-.4327-.0693-2.4459-.1385-2.8927-.1108-.2164-.0324-.5033-.0462-.7244-.0277-.0988-.0185-.2258-.0185-.3293-.0185-.1411 0-.1081.0739-.1834.1617-.1317.1478-.0423.2309-.1035.4064-.0094.0324.0094.1986.1035.194-.08.1478-.174.1386-.127.3049.0753.2771-.0564.6466.0376.8452-.0564.0739-.0517.2679.033.3095.0752.0369.0658.0924.1034.1848.0471.1108.1223.0923.2352.1247.1929.0554.508.0693.7056.0415.174.0278.428.0416.602.0185.207.0323 1.2371.0693 1.4488.0416.2163.0323 4.6378.1339 4.8353.097.207.0231.5174.0185.7244-.0231.2023.0277.5174.0138.7197-.0231.174.0185 1.8438-.0231 2.0461-.0601.1975.0278 1.1618-.0046 1.3217-.0369.2022.0277 2.6105-.1109 2.7705-.1524.1975.0184.4938 0 .6867-.0231.1834.0323.174.0185.3575 0 .2822-.0277.5785-.1386.8419-.2356.1223-.0185.2117-.0647.2258-.1617.1129-.0092.1458-.0739.2681-.1016.0941-.0184.1364-.2632-.0094-.3325-.2634-.1247-.0564-.0324-.1928-.3049-.0518-.097.7008-.1201.2916-.1801-.0988-.0139.3763-.1386.3716-.1848-.0612.0093-.2964-.2864-.4563-.2817 0-.1663.762-.2079.2869-.2587-.7573-.0831.3105-.1247.4657-.1848.0941-.0369-.5786-.12-.6773-.1293v.0231Z"
    clip-rule="evenodd" />
</svg>
