<svg
  xmlns="http://www.w3.org/2000/svg"
  viewBox="0 0 226 37"
  width="226"
  height="37"
  fill="none">
  <path
    fill="#b1b5ba"
    d="m.781 1.469 6.86 1.89v26.167l-6.86 1.89V1.468ZM11.605 14.843l6.708 1.6v14.1l-6.707 1.309V14.843ZM23.037 12.081l6.25-1.599v17.3l-6.25-1.745V12.08ZM33.4.015l6.86 1.89V31.27l-6.86 1.6V.014ZM209.703 19.81h12.103c-.203-1.46-.857-2.644-1.963-3.55-1.106-.907-2.449-1.36-4.029-1.36-1.602 0-2.979.464-4.13 1.392-1.14.916-1.8 2.089-1.981 3.518Zm0 2.43c.113 1.578.768 2.857 1.964 3.838 1.207.98 2.725 1.471 4.553 1.471a7.733 7.733 0 0 0 3.284-.703c1.016-.47 1.947-1.163 2.793-2.08l2.319 1.76c-1.162 1.279-2.437 2.222-3.825 2.83-1.377.608-2.934.912-4.672.912-1.433 0-2.771-.246-4.012-.736a9.134 9.134 0 0 1-3.199-2.095 8.391 8.391 0 0 1-1.795-2.766 8.928 8.928 0 0 1-.626-3.31c0-2.73.863-4.936 2.59-6.62 1.726-1.685 3.983-2.527 6.771-2.527 2.844 0 5.14.9 6.89 2.702 1.76 1.791 2.64 4.158 2.64 7.1v.224h-15.675Zm-7.097-5.597a5.161 5.161 0 0 0-1.923-1.31c-.71-.289-1.522-.433-2.438-.433-1.774 0-3.233.597-4.378 1.791-1.133 1.184-1.699 2.703-1.699 4.558s.561 3.369 1.682 4.541c1.133 1.173 2.598 1.76 4.395 1.76.973 0 1.831-.16 2.575-.48a5.03 5.03 0 0 0 1.923-1.424l2.111 2.255c-.961.82-1.974 1.423-3.038 1.807-1.053.373-2.243.56-3.571.56-1.362 0-2.621-.214-3.777-.64a8.589 8.589 0 0 1-3.004-1.855 8.685 8.685 0 0 1-2.06-2.926c-.458-1.109-.687-2.308-.687-3.598s.229-2.49.687-3.598a8.641 8.641 0 0 1 2.06-2.942 8.486 8.486 0 0 1 3.004-1.855c1.145-.427 2.404-.64 3.777-.64 1.305 0 2.484.181 3.537.544a8.906 8.906 0 0 1 2.901 1.647l-2.077 2.238Zm-31.255 13.193v-17.19h3.213v1.966c.809-.778 1.658-1.353 2.547-1.726a7.287 7.287 0 0 1 2.888-.576c2.108 0 3.772.671 4.991 2.015 1.219 1.343 1.829 3.192 1.829 5.549v9.962h-3.247v-9.659c0-1.801-.337-3.118-1.009-3.95-.661-.842-1.703-1.263-3.128-1.263-1.618 0-2.837.448-3.657 1.344-.809.884-1.214 2.217-1.214 3.997v9.53h-3.213Zm-12.362-2.399c1.811 0 3.301-.58 4.468-1.743 1.167-1.162 1.75-2.654 1.75-4.477 0-1.813-.583-3.3-1.75-4.462-1.167-1.172-2.657-1.759-4.468-1.759-1.812 0-3.301.581-4.469 1.743-1.167 1.162-1.75 2.655-1.75 4.478 0 1.833.583 3.331 1.75 4.493 1.168 1.151 2.657 1.727 4.469 1.727Zm9.219 2.399h-3.167V27.02c-.756 1.013-1.679 1.775-2.768 2.287-1.078.501-2.317.752-3.718.752a9.627 9.627 0 0 1-3.568-.672 9.216 9.216 0 0 1-3.001-1.983 8.41 8.41 0 0 1-1.884-2.814c-.422-1.045-.633-2.18-.633-3.406 0-2.655.828-4.797 2.484-6.428 1.667-1.632 3.868-2.447 6.602-2.447 1.378 0 2.64.272 3.785.815a8.03 8.03 0 0 1 2.934 2.335v-2.814h2.934v17.19ZM130.682 7.768v19.125h2.493c3.634 0 6.371-.804 8.211-2.414 1.85-1.61 2.775-3.992 2.775-7.148 0-3.166-.925-5.549-2.775-7.148-1.84-1.61-4.577-2.415-8.211-2.415h-2.493Zm1.978-2.958c4.875 0 8.582 1.066 11.119 3.198 2.548 2.122 3.823 5.23 3.823 9.323 0 4.083-1.275 7.19-3.823 9.323-2.537 2.121-6.244 3.182-11.119 3.182h-5.385V4.81h5.385Zm-25.629 15h11.908c-.2-1.46-.844-2.644-1.932-3.55-1.088-.907-2.41-1.36-3.964-1.36-1.577 0-2.931.464-4.064 1.392-1.121.916-1.771 2.089-1.948 3.518Zm0 2.43c.111 1.578.755 2.857 1.932 3.838 1.188.98 2.681 1.471 4.48 1.471a7.512 7.512 0 0 0 3.231-.703c.999-.47 1.915-1.163 2.748-2.08l2.281 1.76c-1.143 1.279-2.398 2.222-3.764 2.83-1.354.608-2.886.912-4.596.912-1.41 0-2.726-.246-3.947-.736a8.971 8.971 0 0 1-3.148-2.095 8.39 8.39 0 0 1-1.765-2.766 9.042 9.042 0 0 1-.617-3.31c0-2.73.85-4.936 2.548-6.62 1.699-1.685 3.92-2.527 6.662-2.527 2.798 0 5.058.9 6.779 2.702 1.732 1.791 2.598 4.158 2.598 7.1v.224h-15.422ZM95.001 8.456v4.19h-6.298l-4.844 10.873c-.08.182-.236.587-.466 1.216l-.81 2.286a68.668 68.668 0 0 0-.741-2.35c-.195-.608-.334-.992-.414-1.151l-4.775-10.874h-3.672l7.74 17.19-3.258 7.132h3.327l10.356-21.873 3.855.11V26.27c0 1.439.388 2.468 1.165 3.086.778.608 2.084.911 3.919.911h2.045v-2.894h-1.911c-.548 0-.95-.117-1.204-.352-.243-.234-.364-.607-.364-1.119V15.204h3.479v-2.558h-3.479v-4.19h-3.65Zm-41.774 21.38V4.81h5.084c1.962 0 3.51.085 4.644.256 1.147.16 2.096.426 2.848.8 1.287.64 2.262 1.45 2.924 2.43.676.97 1.013 2.068 1.013 3.294 0 1.013-.312 1.94-.936 2.783-.612.842-1.485 1.53-2.619 2.063 1.86.511 3.269 1.31 4.224 2.398.969 1.077 1.453 2.41 1.453 3.998 0 1.972-.93 3.635-2.79 4.989-1.848 1.343-4.154 2.015-6.92 2.015h-8.925Zm3.88-14.248h3.21c1.785 0 3.16-.346 4.129-1.04.981-.692 1.472-1.668 1.472-2.926 0-1.322-.49-2.318-1.472-2.99-.981-.672-2.447-1.007-4.396-1.007h-2.944v7.963Zm0 11.306h3.956c2.23 0 3.918-.358 5.065-1.072 1.16-.714 1.74-1.77 1.74-3.166 0-1.375-.561-2.415-1.683-3.118-1.121-.715-2.778-1.072-4.97-1.072h-4.109v8.427Z" />
</svg>
