<svg
  xmlns="http://www.w3.org/2000/svg"
  width="145"
  height="182"
  fill="none"
  viewBox="0 0 145 182">
  <g filter="url(#binary-glow)">
    <path
      fill="#FF7B6F"
      stroke="#000"
      stroke-linejoin="round"
      stroke-width="2"
      d="m51.4434 68.2013 38.0665-21.9197 12.6411 7.4599.022 57.8825-50.7843 29.205.0547-72.6277Z" />
    <path
      fill="#FF7B6F"
      stroke="#000"
      stroke-linejoin="round"
      stroke-width="2"
      d="m89.5109 46.2815-9.5303-5.28-37.1134 22.2483 8.5773 4.9513 38.0664-21.9196Z" />
    <path
      fill="#EA4E48"
      stroke="#000"
      stroke-linejoin="round"
      stroke-width="2"
      d="m51.3878 140.829-8.6321-5.017.1096-72.5621 8.5772 4.9513-.0547 72.6278Z" />
    <path
      fill="#E7EAEE"
      stroke="#000"
      stroke-linejoin="round"
      stroke-width="2"
      d="m51.2695 126.676.0547-29.2267 51.9568-30.0478v29.1934L51.2695 126.676Z" />
    <path
      fill="#000"
      d="m57.5546 99.7608 7.4818-4.3161c1.4789-.8544 2.5853-1.424 3.3082-1.7308.723-.2957 1.3803-.4162 1.9499-.3505.5696.0548 1.0516.3067 1.435.7339.3834.4273.5697 1.0517.5697 1.8513 0 .8764-.241 1.8185-.7121 2.8153-.471 1.0078-1.1173 1.9171-1.917 2.7491 1.1393-.328 2.0156-.262 2.6291.176.6134.449.9201 1.205.9201 2.289 0 .855-.1971 1.797-.5915 2.826-.3944 1.03-.9311 1.983-1.6212 2.859-.6792.877-1.5337 1.655-2.5305 2.345-.6244.427-2.1471 1.347-4.557 2.76l-6.3645 3.67V99.7388v.022Zm3.7792.9312v4.327l2.4757-1.424c1.4679-.855 2.3881-1.402 2.7386-1.643.6463-.45 1.1502-.964 1.5227-1.545.3724-.5805.5587-1.183.5587-1.7855s-.1644-.953-.482-1.1283c-.3177-.1753-.7888-.1205-1.4241.1643-.3725.1753-1.446.7778-3.2315 1.7965l-2.169 1.249.0109-.011Zm0 7.438v5.006l3.4945-2.016c1.3583-.788 2.2237-1.325 2.5852-1.61.5587-.427 1.0188-.942 1.3693-1.533.3506-.603.5258-1.227.5258-1.896 0-.558-.1314-.964-.4053-1.194-.2738-.23-.6682-.295-1.1831-.175-.5148.121-1.6322.668-3.352 1.665l-3.0453 1.764.0109-.011ZM75.6523 108.02V89.3212l3.7792-2.18V105.84l-3.7792 2.18ZM82.4101 104.121V85.4214l3.6697-2.1251 7.6571 8.0733V78.8817l3.5054-2.0266v18.6991l-3.7902 2.1909-7.5366-7.8434v12.1923l-3.5054 2.027Z" />
    <path
      fill="#B1B5BA"
      stroke="#000"
      stroke-linejoin="round"
      stroke-width="2"
      d="m42.0881 92.038 9.2346 5.4114-.0548 29.2266-9.3441-5.412.1643-29.226Z" />
  </g>
  <defs>
    <filter
      id="binary-glow"
      width="143.357"
      height="181.827"
      x=".923828"
      y=".00146484"
      color-interpolation-filters="sRGB"
      filterUnits="userSpaceOnUse">
      <feFlood flood-opacity="0" result="BackgroundImageFix" />
      <feColorMatrix
        in="SourceAlpha"
        result="hardAlpha"
        values="0 0 0 0 0 0 0 0 0 0 0 0 0 0 0 0 0 0 127 0" />
      <feOffset />
      <feGaussianBlur stdDeviation="20" />
      <feComposite in2="hardAlpha" operator="out" />
      <feColorMatrix
        values="0 0 0 0 1 0 0 0 0 0.415686 0 0 0 0 0.431373 0 0 0 0.3 0" />
      <feBlend in2="BackgroundImageFix" result="effect1_dropShadow_503_188" />
      <feBlend
        in="SourceGraphic"
        in2="effect1_dropShadow_503_188"
        result="shape" />
    </filter>
  </defs>
</svg>
