<svg
  xmlns="http://www.w3.org/2000/svg"
  viewBox="0 0 80 58"
  width="80"
  height="58"
  fill="none">
  <path
    fill="currentColor"
    d="M10.387 50.473c0 1.338-.309 2.39-.935 3.135-.627.746-1.51 1.124-2.64 1.124-.997 0-1.768-.276-2.302-.817-.534-.541-.811-1.359-.811-2.451V43.12H0v8.63c0 1.184.236 2.236.709 3.145a5.278 5.278 0 0 0 1.983 2.145c.852.51 1.839.776 2.98.776 1.314 0 2.29-.235 2.937-.705.648-.47 1.09-.94 1.326-1.43h.524v1.9h3.636V43.12h-3.698v7.353h-.01ZM24.873 48.492H16.19v3.33h8.682v-3.33ZM32.229 43.477c-.504.276-.853.705-1.069 1.287h-.524V43.13H27v14.462h3.699V49.37c0-1.031.298-1.797.914-2.288.606-.5 1.377-.745 2.322-.745h1.819v-3.268h-1.757c-.668 0-1.243.132-1.747.408h-.02ZM47.68 43.6c-1.15-.583-2.455-.879-3.904-.879-1.448 0-2.753.296-3.904.879a6.649 6.649 0 0 0-2.733 2.532c-.667 1.103-.996 2.441-.996 3.994v.47c0 1.552.329 2.89.996 3.993a6.588 6.588 0 0 0 2.733 2.533c1.151.582 2.456.878 3.904.878 1.449 0 2.743-.296 3.904-.878a6.65 6.65 0 0 0 2.733-2.533c.668-1.113.997-2.441.997-3.993v-.47c0-1.553-.33-2.89-.997-3.994A6.521 6.521 0 0 0 47.68 43.6Zm.031 6.914c0 1.358-.37 2.41-1.11 3.135-.74.725-1.684 1.093-2.814 1.093-1.13 0-2.076-.368-2.815-1.093-.74-.725-1.11-1.777-1.11-3.135v-.296c0-1.359.37-2.41 1.11-3.136.74-.725 1.684-1.093 2.815-1.093 1.13 0 2.095.368 2.835 1.093.73.725 1.1 1.777 1.1 3.136v.296h-.01ZM64.6 43.6c-1.151-.583-2.456-.879-3.904-.879-1.449 0-2.754.296-3.904.879a6.649 6.649 0 0 0-2.733 2.532c-.668 1.103-.997 2.441-.997 3.994v.47c0 1.552.329 2.89.997 3.993a6.588 6.588 0 0 0 2.733 2.533c1.15.582 2.455.878 3.904.878 1.448 0 2.743-.296 3.904-.878a6.65 6.65 0 0 0 2.733-2.533c.667-1.113.996-2.441.996-3.993v-.47c0-1.553-.329-2.89-.996-3.994A6.521 6.521 0 0 0 64.6 43.6Zm.03 6.914c0 1.358-.37 2.41-1.11 3.135-.739.725-1.684 1.093-2.814 1.093-1.13 0-2.075-.368-2.815-1.093-.74-.725-1.11-1.777-1.11-3.135v-.296c0-1.359.37-2.41 1.11-3.136.74-.725 1.685-1.093 2.815-1.093s2.096.368 2.835 1.093c.73.725 1.1 1.777 1.1 3.136v.296h-.01ZM80 46.163V43.13h-3.986v-4.494h-3.699v4.494h-3.637v3.033h3.637v8.17c0 .991.298 1.788.894 2.38.596.593 1.377.889 2.332.889h4.11v-3.034h-2.815c-.545 0-.822-.296-.822-.878v-7.527H80ZM40.152 12.695 27.577 5.648l-.02 3.636 9.585 5.33 3.01-1.92Z" />
  <path
    fill="currentColor"
    d="m31.06 23.674 7.777.112 15.359-9.58.03-3.676L35.17 0l-7.582 4.371-.01.113 14.568 8.16-6.801 4.269L20.23 8.518l-8.188 4.596v.173L31.06 23.674ZM42.278 26.452l1.747-1.134 11.096 6.904 1.787-1.093-11.116-6.945 1.983-1.286 11.096 6.904 1.797-1.093-11.126-6.945 1.818-1.174 11.117 6.914 1.787-1.093-11.136-6.965 1.047-.674.02-3.36-14.814 9.242-.061.041v3.667l1.191-.776L51.627 34.5l1.788-1.093-11.137-6.955ZM30.453 28.352v-3.84l-18.41-10.06v3.523l18.41 10.377ZM31.48 28.637l6.812.052v-3.892l-6.811-.102v3.942Z" />
</svg>
