<svg
  xmlns="http://www.w3.org/2000/svg"
  width="155"
  height="182"
  fill="none"
  viewBox="0 0 155 182">
  <g filter="url(#terminal-glow)">
    <path
      fill="#3CE06F"
      stroke="#000"
      stroke-linejoin="round"
      stroke-width="2"
      d="M50.7531 82.891 113.949 46.15l-.044 58.354-63.3601 36.325.2082-57.938Z" />
    <path
      fill="#3CE06F"
      stroke="#000"
      stroke-linejoin="round"
      stroke-width="2"
      d="m113.95 46.1501-8.884-5.0609-62.9 36.8724 8.5882 4.9295 63.1958-36.741Z" />
    <path
      fill="#009D32"
      stroke="#000"
      stroke-linejoin="round"
      stroke-width="2"
      d="m50.5464 140.829-8.5991-4.722.2191-58.1455 8.5882 4.9295-.2082 57.938Z" />
    <path
      fill="#B1B5BA"
      stroke="#000"
      stroke-linejoin="round"
      stroke-width="2"
      d="m41.0488 92.509 9.4974 5.532-.1205 30.486-9.3716-5.733-.0053-30.285Z" />
    <path
      fill="#E7EAEE"
      stroke="#000"
      stroke-linejoin="round"
      stroke-width="2"
      d="m55.9785 86.7359 52.3835-30.3764-.033 44.2555-52.2738 29.862-.0767-43.7411Z" />
    <path
      fill="#000"
      d="M66.6045 104.449v-5.4332c-1.698.4929-2.9358.482-3.7355-.0438-.7887-.5258-1.183-1.4898-1.183-2.892 0-1.4021.4491-2.87 1.3474-4.3489.8982-1.4788 2.0813-2.7276 3.5711-3.7245V86.725l1.8841-1.0845v1.2817c1.3693-.6354 2.4648-.7888 3.2863-.482.8107.3067 1.3365 1.0406 1.5556 2.2128l-3.2864 2.3223c-.1971-.9092-.7229-1.2926-1.5555-1.1721v5.0718c2.0704-.6353 3.4945-.723 4.2394-.2629.7558.4601 1.1283 1.3912 1.1283 2.7934 0 1.5665-.4711 3.1545-1.4241 4.7765-.953 1.621-2.2676 3.034-3.9545 4.25v2.421l-1.8842 1.084v-2.366c-1.5007.679-2.7167.822-3.6478.427-.9311-.394-1.5336-1.369-1.7855-2.924l3.3849-2.323c.1424.614.3943 1.063.7777 1.337.3834.284.7997.405 1.2707.361h.011Zm0-13.6271c-.5149.4711-.9202.9969-1.216 1.5884-.3067.5915-.4491 1.1393-.4491 1.6432 0 .46.1424.7996.4163 1.0406.2738.2301.7011.3067 1.2597.2301v-4.4913l-.0109-.011Zm1.8841 12.7181c.6463-.493 1.1721-1.096 1.5775-1.818.4053-.713.6134-1.392.6134-2.049 0-.5805-.1753-.9859-.5149-1.2049-.3395-.2191-.8982-.2191-1.676 0v5.0719ZM86.39 98.6435l-11.0091 6.3425v-3.012L86.39 95.642v3.0015Z" />
  </g>
  <defs>
    <filter
      id="terminal-glow"
      width="154.901"
      height="181.739"
      x=".0487633"
      y=".0892334"
      color-interpolation-filters="sRGB"
      filterUnits="userSpaceOnUse">
      <feFlood flood-opacity="0" result="BackgroundImageFix" />
      <feColorMatrix
        in="SourceAlpha"
        result="hardAlpha"
        values="0 0 0 0 0 0 0 0 0 0 0 0 0 0 0 0 0 0 127 0" />
      <feOffset />
      <feGaussianBlur stdDeviation="20" />
      <feComposite in2="hardAlpha" operator="out" />
      <feColorMatrix
        values="0 0 0 0 0.380392 0 0 0 0 0.968627 0 0 0 0 0.560784 0 0 0 0.2 0" />
      <feBlend in2="BackgroundImageFix" result="effect1_dropShadow_503_207" />
      <feBlend
        in="SourceGraphic"
        in2="effect1_dropShadow_503_207"
        result="shape" />
    </filter>
  </defs>
</svg>
