<svg xmlns="http://www.w3.org/2000/svg" width="29" height="29" fill="none">
  <path
    fill="currentColor"
    fill-rule="evenodd"
    d="M14.832.765C7.084.765.82 7.18.82 15.12c0 6.345 4.014 11.716 9.581 13.617.696.143.951-.308.951-.688 0-.333-.023-1.474-.023-2.662-3.898.855-4.71-1.712-4.71-1.712-.626-1.663-1.554-2.091-1.554-2.091-1.275-.88.093-.88.093-.88 1.415.096 2.158 1.474 2.158 1.474 1.252 2.186 3.27 1.569 4.083 1.188.115-.927.487-1.568.881-1.925-3.108-.332-6.38-1.568-6.38-7.082 0-1.569.557-2.852 1.439-3.85-.14-.357-.627-1.83.14-3.803 0 0 1.182-.38 3.85 1.474a13.26 13.26 0 0 1 3.503-.476c1.183 0 2.389.167 3.503.476 2.668-1.854 3.85-1.474 3.85-1.474.766 1.973.279 3.446.14 3.803.905.998 1.438 2.281 1.438 3.85 0 5.514-3.27 6.726-6.403 7.082.51.452.951 1.307.951 2.662 0 1.925-.023 3.47-.023 3.945 0 .38.256.832.951.69 5.568-1.902 9.581-7.273 9.581-13.618C28.843 7.18 22.557.764 14.832.764Z"
    clip-rule="evenodd" />
</svg>
