<svg xmlns="http://www.w3.org/2000/svg" width="29" height="29" fill="none">
  <path
    fill="currentColor"
    d="M6.747 18.465a2.939 2.939 0 0 1-2.94 2.943 2.939 2.939 0 0 1-2.941-2.943 2.939 2.939 0 0 1 2.94-2.942h2.94v2.942Zm1.47 0a2.939 2.939 0 0 1 2.94-2.942 2.939 2.939 0 0 1 2.94 2.942v7.357a2.939 2.939 0 0 1-2.94 2.943 2.939 2.939 0 0 1-2.94-2.943v-7.357ZM11.157 6.65a2.939 2.939 0 0 1-2.94-2.943 2.939 2.939 0 0 1 2.94-2.942 2.939 2.939 0 0 1 2.94 2.942V6.65h-2.94Zm0 1.494a2.939 2.939 0 0 1 2.94 2.942 2.939 2.939 0 0 1-2.94 2.943H3.784a2.939 2.939 0 0 1-2.94-2.943 2.939 2.939 0 0 1 2.94-2.942h7.373ZM22.94 11.086a2.939 2.939 0 0 1 2.941-2.942 2.939 2.939 0 0 1 2.94 2.942 2.939 2.939 0 0 1-2.94 2.943h-2.94v-2.943Zm-1.47 0a2.939 2.939 0 0 1-2.94 2.943 2.939 2.939 0 0 1-2.94-2.943V3.707A2.939 2.939 0 0 1 18.53.765a2.939 2.939 0 0 1 2.94 2.942v7.38ZM18.53 22.88a2.939 2.939 0 0 1 2.94 2.942 2.939 2.939 0 0 1-2.94 2.943 2.939 2.939 0 0 1-2.94-2.943v-2.943h2.94Zm0-1.472a2.939 2.939 0 0 1-2.94-2.943 2.939 2.939 0 0 1 2.94-2.942h7.373a2.939 2.939 0 0 1 2.94 2.942 2.939 2.939 0 0 1-2.94 2.943H18.53Z" />
</svg>
