<svg
  xmlns="http://www.w3.org/2000/svg"
  width="48"
  height="48"
  fill="none"
  viewBox="0 0 48 48">
  <style>
    path {
      fill: #000;
    }
    @media (prefers-color-scheme: dark) {
      path {
        fill: #fff;
      }
    }
  </style>
  <path
    d="m25.8367 19.7751-11.5585-6.5365-.0189 3.3724 8.8106 4.945 2.7668-1.7809Z" />
  <path
    d="m17.4795 29.9586 7.1485.1042 14.1177-8.8858.0283-3.4103L21.2568 8l-6.9692 4.0545-.0094.1042 13.3905 7.569-6.2514 3.9597-13.89103-7.7869L0 20.1634v.1611l17.4795 9.6341ZM27.7914 32.5352l1.6054-1.0515 10.1987 6.4038 1.6431-1.0136-10.2176-6.4417 1.8226-1.1936 10.1987 6.4038 1.6526-1.0136-10.2271-6.4417 1.6715-1.0894 10.2176 6.4132L48 32.4973l-10.2365-6.4606.9632-.6252.0189-3.1167-13.6738 8.6111v3.4008l1.0954-.72L36.3848 40l1.6431-1.0136-10.2365-6.4512ZM16.9223 30.7354 0 21.4044v3.2682l16.9318 9.6247c-.0032-1.1873-.0095-2.3746-.0095-3.5619ZM17.8666 34.5625l6.2608.0474v-3.6092l-6.2608-.0948v3.6566Z" />
</svg>
