<svg xmlns="http://www.w3.org/2000/svg" width="27" height="29" fill="none">
  <path
    fill="currentColor"
    fill-rule="evenodd"
    d="M19.363 22.106c3.492-.419 6.533-2.58 6.916-4.556.602-3.111.552-7.593.552-7.593 0-6.074-3.962-7.854-3.962-7.854-1.997-.922-5.427-1.31-8.99-1.338h-.088C10.227.794 6.8 1.18 4.802 2.103c0 0-3.962 1.78-3.962 7.854 0 .369-.002.756-.004 1.16-.005 1.119-.011 2.361.021 3.658.144 5.94 1.084 11.794 6.551 13.248 2.521.67 4.686.81 6.429.714 3.16-.176 4.935-1.133 4.935-1.133l-.104-2.304s-2.259.716-4.796.629c-2.513-.087-5.167-.273-5.573-3.373a6.385 6.385 0 0 1-.057-.869s2.468.606 5.595.75c1.912.088 3.705-.113 5.526-.33Zm2.795-4.323v-7.355c0-1.503-.381-2.697-1.146-3.581-.79-.884-1.823-1.337-3.106-1.337-1.484 0-2.608.573-3.351 1.72l-.723 1.216-.723-1.216c-.743-1.147-1.867-1.72-3.351-1.72-1.283 0-2.317.453-3.106 1.337-.765.884-1.146 2.078-1.146 3.581v7.355h2.9v-7.139c0-1.504.63-2.268 1.892-2.268 1.394 0 2.092.906 2.092 2.697v3.908h2.884v-3.908c0-1.791.699-2.697 2.092-2.697 1.261 0 1.891.764 1.891 2.268v7.139h2.901Z"
    clip-rule="evenodd" />
</svg>
